<?xml version="1.0" encoding="UTF-8" standalone="no"?>
<svg
   xmlns:dc="http://purl.org/dc/elements/1.1/"
   xmlns:cc="http://creativecommons.org/ns#"
   xmlns:rdf="http://www.w3.org/1999/02/22-rdf-syntax-ns#"
   xmlns:svg="http://www.w3.org/2000/svg"
   xmlns="http://www.w3.org/2000/svg"
   xmlns:sodipodi="http://sodipodi.sourceforge.net/DTD/sodipodi-0.dtd"
   xmlns:inkscape="http://www.inkscape.org/namespaces/inkscape"
   width="100.00009"
   height="53.173412"
   viewBox="0 0 26.458357 14.068801"
   version="1.1"
   id="svg8"
   inkscape:version="1.0 (4035a4f, 2020-05-01)"
   sodipodi:docname="groupyr-logo.svg">
  <defs
     id="defs2" />
  <sodipodi:namedview
     lock-margins="true"
     fit-margin-left="2.5"
     fit-margin-bottom="2.5"
     fit-margin-right="2.5"
     fit-margin-top="2.5"
     id="base"
     pagecolor="#ffffff"
     bordercolor="#666666"
     borderopacity="1.0"
     inkscape:pageopacity="0.0"
     inkscape:pageshadow="2"
     inkscape:zoom="2.4345633"
     inkscape:cx="160.91269"
     inkscape:cy="79.488758"
     inkscape:document-units="mm"
     inkscape:current-layer="layer1"
     inkscape:document-rotation="0"
     showgrid="false"
     inkscape:window-width="1252"
     inkscape:window-height="855"
     inkscape:window-x="1597"
     inkscape:window-y="62"
     inkscape:window-maximized="0"
     units="px" />
  <metadata
     id="metadata5">
    <rdf:RDF>
      <cc:Work
         rdf:about="">
        <dc:format>image/svg+xml</dc:format>
        <dc:type
           rdf:resource="http://purl.org/dc/dcmitype/StillImage" />
        <dc:title></dc:title>
      </cc:Work>
    </rdf:RDF>
  </metadata>
  <g
     transform="translate(-50.137301,-76.72942)"
     inkscape:label="Layer 1"
     inkscape:groupmode="layer"
     id="layer1">
    <path
       style="fill:#000000;stroke:#000000;stroke-width:0.123425;stroke-opacity:0.979839"
       d="m 65.823653,90.05678 c -0.15945,-0.03705 -0.327763,-0.130113 -0.350461,-0.193779 -0.0105,-0.02945 -0.06607,-0.119684 -0.123478,-0.200508 -0.291841,-0.410853 -0.420624,-1.394957 -0.193933,-1.481944 0.02607,-0.01002 0.0474,-0.03838 0.0474,-0.06309 0,-0.0247 0.08675,-0.133835 0.192785,-0.242532 0.147072,-0.150768 0.266578,-0.233287 0.503986,-0.347997 0.17116,-0.0827 0.32508,-0.150366 0.342043,-0.150366 0.01696,0 0.04863,-0.02144 0.07038,-0.04764 0.03264,-0.03933 0.0241,-0.05151 -0.04895,-0.06985 -0.117409,-0.02946 -0.606041,0.0094 -0.648215,0.05161 -0.08401,0.08401 -1.623987,0.01073 -1.933884,-0.09201 -0.105925,-0.03512 -0.244025,-0.0743 -0.306888,-0.08706 -0.06286,-0.01275 -0.158383,-0.04182 -0.212265,-0.06456 -0.05388,-0.02275 -0.289007,-0.104362 -0.522498,-0.181355 -0.482711,-0.159174 -0.917029,-0.211486 -1.021514,-0.123037 -0.09085,0.0769 -0.280484,0.177584 -0.418016,0.221926 -0.07038,0.02268 -0.14266,0.05269 -0.160621,0.06666 -0.01796,0.01396 -0.113883,0.04654 -0.21316,0.07238 -0.19302,0.05025 -0.31625,0.122474 -0.652227,0.382265 -0.216742,0.167592 -0.306211,0.19939 -0.336793,0.119696 -0.0095,-0.02469 -0.02778,-0.167958 -0.04069,-0.318398 -0.0129,-0.150439 -0.0391,-0.283583 -0.05821,-0.295876 -0.04677,-0.03009 -0.216545,0.0054 -0.307618,0.06426 -0.04421,0.02858 -0.111122,0.0403 -0.166682,0.02919 -0.05105,-0.0102 -0.105989,-0.0062 -0.122079,0.0089 -0.01609,0.0151 -0.184063,0.08041 -0.373274,0.145183 -0.307086,0.10512 -0.379845,0.117763 -0.677733,0.117763 -0.271324,0 -0.356495,-0.01221 -0.455573,-0.06531 -0.06702,-0.03592 -0.141806,-0.06531 -0.166186,-0.06531 -0.07673,0 -0.62609,-0.435785 -0.62609,-0.496653 0,-0.01751 -0.02983,-0.0698 -0.0663,-0.116159 -0.06529,-0.08301 -0.07104,-0.128859 -0.06422,-0.512385 0.0027,-0.151709 0.06573,-0.30342 0.183747,-0.442298 0.131143,-0.154318 0.339178,-0.346101 0.452942,-0.417558 0.07184,-0.04512 0.137973,-0.09167 0.146953,-0.103422 0.02942,-0.03852 0.294732,-0.164798 0.346227,-0.164798 0.04909,0 0.163299,-0.09111 0.139339,-0.111158 -0.0066,-0.0055 -0.07818,-0.03422 -0.159005,-0.06371 -0.228887,-0.08353 -0.759251,-0.159898 -1.218484,-0.17545 -0.373551,-0.01265 -0.433907,-0.0069 -0.562962,0.05378 -0.07951,0.03737 -0.157525,0.06795 -0.17338,0.06795 -0.01585,0 -0.171542,0.08082 -0.345974,0.179611 -0.174432,0.09878 -0.329567,0.179605 -0.344743,0.179605 -0.01517,0 -0.04769,0.01836 -0.07224,0.04082 -0.02455,0.02245 -0.08916,0.06438 -0.14357,0.09317 -0.743922,0.393662 -0.964612,0.51521 -1.171682,0.645323 -0.188956,0.11873 -0.489866,0.265213 -0.547921,0.266723 -0.02194,6.86e-4 -0.06842,0.02262 -0.10328,0.04898 -0.07016,0.05307 -0.473172,0.06799 -0.526053,0.0195 -0.01706,-0.01564 -0.119195,-0.05452 -0.22696,-0.08638 -0.291997,-0.08632 -0.897915,-0.390828 -1.031395,-0.518328 -0.08096,-0.07733 -0.134136,-0.170588 -0.172553,-0.302624 -0.09378,-0.322323 -0.159682,-0.515756 -0.188365,-0.552912 -0.01508,-0.01953 -0.03452,-0.173829 -0.04321,-0.342891 -0.0087,-0.169058 -0.03059,-0.377789 -0.04866,-0.463844 -0.04921,-0.234348 -0.05601,-0.855709 -0.01,-0.911185 0.02102,-0.02533 0.02966,-0.07884 0.01917,-0.118911 -0.02232,-0.08537 0.06726,-0.201325 0.155543,-0.201325 0.0856,0 0.113468,-0.06862 0.04372,-0.107651 -0.05802,-0.03248 -0.05788,-0.03459 0.0036,-0.05618 0.04773,-0.01678 0.06468,-0.0546 0.0671,-0.149736 0.0096,-0.377792 0.0607,-0.757245 0.116023,-0.86157 0.03319,-0.0626 0.06035,-0.139746 0.06035,-0.171444 0,-0.0317 0.01102,-0.0578 0.02449,-0.05801 0.01347,-1.77e-4 0.05257,-0.05899 0.08689,-0.130624 0.03432,-0.07164 0.08109,-0.130251 0.103931,-0.130251 0.02284,0 0.0505,-0.02826 0.06147,-0.06281 0.02169,-0.06835 0.255775,-0.230354 0.450242,-0.311606 0.09617,-0.04019 0.158469,-0.04445 0.293504,-0.02013 0.154453,0.02783 0.490892,0.128226 0.661261,0.197327 0.03592,0.01457 0.131441,0.04585 0.212265,0.06952 0.176154,0.05158 1.219978,0.574555 1.23549,0.619005 0.006,0.01715 0.04475,0.0312 0.08614,0.0312 0.04139,0 0.154055,0.05422 0.250365,0.120478 0.228708,0.157355 0.632753,0.386717 0.959152,0.544478 0.143523,0.06937 0.286728,0.139334 0.318233,0.155473 0.203646,0.104342 1.125192,0.10763 1.15931,0.0041 0.0077,-0.02332 -0.01388,-0.04082 -0.05026,-0.04082 -0.07315,0 -0.627392,-0.274712 -0.676487,-0.335302 -0.01796,-0.02218 -0.09144,-0.07951 -0.16328,-0.127422 -0.07184,-0.04792 -0.172809,-0.124611 -0.224367,-0.170434 l -0.09374,-0.08331 0.05316,-0.132871 c 0.02924,-0.07308 0.111837,-0.207101 0.183547,-0.29782 0.07171,-0.09072 0.130381,-0.185312 0.130381,-0.210205 0,-0.0249 0.05232,-0.09287 0.116259,-0.151054 0.113479,-0.103262 0.116087,-0.111124 0.109033,-0.32862 -0.004,-0.122554 0.0062,-0.236265 0.02264,-0.25269 0.01642,-0.01642 0.167062,-0.06658 0.334748,-0.111457 0.167686,-0.04488 0.321938,-0.09503 0.342782,-0.111451 0.02084,-0.01642 0.111374,-0.07033 0.201178,-0.119784 0.0898,-0.04946 0.253673,-0.139596 0.364152,-0.200307 0.110479,-0.06071 0.222569,-0.110382 0.249086,-0.110382 0.02652,0 0.06523,-0.0205 0.08603,-0.04557 0.0208,-0.02506 0.08811,-0.055 0.149573,-0.06653 0.06146,-0.01153 0.152786,-0.04237 0.202936,-0.06853 0.05015,-0.02616 0.143864,-0.04765 0.208251,-0.04776 0.06439,-9e-5 0.211339,-0.03208 0.326561,-0.07106 0.154447,-0.05223 0.286722,-0.0707 0.5034,-0.07025 0.257416,5.22e-4 0.313749,0.01155 0.45374,0.08877 l 0.159833,0.08817 0.08509,-0.07892 c 0.0909,-0.08432 0.282538,-0.137923 0.313569,-0.08772 0.03266,0.05285 0.190196,-0.02968 0.314734,-0.164879 0.134389,-0.145892 0.262857,-0.170645 0.329749,-0.06354 0.05916,0.09472 0.107125,0.0813 0.22252,-0.0623 0.113278,-0.140959 0.205052,-0.180384 0.30072,-0.129183 0.09106,0.04874 0.203233,0.0099 0.24663,-0.08531 0.02066,-0.04534 0.05811,-0.08242 0.08324,-0.08242 0.02513,0 0.06398,-0.02205 0.08634,-0.04898 0.0563,-0.06784 0.129712,-0.06123 0.215545,0.01941 0.04821,0.04529 0.09511,0.06131 0.138842,0.04743 0.06851,-0.02174 0.266079,-0.291987 0.266079,-0.363955 0,-0.09806 0.119876,-0.06114 0.250639,0.07721 0.16057,0.169881 0.168954,0.167583 0.389248,-0.106657 0.08657,-0.107766 0.172718,-0.206624 0.191448,-0.219684 0.05681,-0.03961 0.159784,0.0097 0.253133,0.121269 0.04865,0.05814 0.133724,0.124452 0.189052,0.14737 0.08896,0.03685 0.105724,0.03465 0.144939,-0.01897 0.02439,-0.03336 0.06714,-0.142621 0.09499,-0.242816 0.05835,-0.209869 0.150728,-0.315574 0.234716,-0.268571 0.07494,0.04194 0.374481,0.338409 0.374481,0.370645 0,0.02146 0.200894,0.09361 0.262415,0.09425 0.0096,8.9e-5 0.01902,-0.02553 0.02088,-0.05697 0.0019,-0.03143 0.04905,-0.174711 0.104847,-0.318397 0.0558,-0.143687 0.101736,-0.29064 0.102077,-0.326562 3.69e-4,-0.03593 0.01451,-0.08728 0.03149,-0.114138 0.02649,-0.04191 0.03804,-0.03959 0.08152,0.01632 0.05663,0.07283 0.266455,0.422832 0.34762,0.579852 l 0.05281,0.102166 0.07892,-0.08515 c 0.04341,-0.04684 0.120753,-0.09011 0.171885,-0.09617 0.08304,-0.0098 0.10092,-0.0347 0.167431,-0.232755 0.117271,-0.34921 0.189635,-0.397557 0.304262,-0.20328 0.03693,0.06259 0.08391,0.176481 0.104386,0.253085 0.02048,0.0766 0.04858,0.153975 0.06243,0.171935 0.01385,0.01796 0.04385,0.11348 0.06666,0.212265 0.0925,0.400555 0.252462,0.463506 0.501432,0.197336 0.08329,-0.08904 0.151423,-0.176314 0.151423,-0.193951 0,-0.01764 0.05878,-0.09998 0.130624,-0.182994 0.07184,-0.08301 0.130623,-0.164726 0.130623,-0.181595 0,-0.07452 0.06893,-0.02001 0.116079,0.09179 0.04178,0.09909 0.04966,0.22685 0.04125,0.669483 -0.0057,0.300861 -0.0023,0.547007 0.0079,0.54699 0.03961,-6.8e-5 0.122141,-0.08748 0.189666,-0.200893 0.09554,-0.160471 0.152142,-0.176621 0.201484,-0.0575 0.03338,0.08061 0.03006,0.127236 -0.0203,0.283545 -0.07525,0.233603 -0.07613,0.459982 -0.002,0.514189 0.02972,0.02173 0.167867,0.05773 0.306982,0.07998 0.139117,0.02225 0.268203,0.05287 0.286858,0.06804 0.01866,0.01517 0.136217,0.04442 0.261248,0.065 0.35139,0.05784 0.372568,0.06186 0.66819,0.126821 0.265314,0.0583 0.914167,0.275195 1.131572,0.37825 0.0566,0.02683 0.112645,0.04878 0.12455,0.04878 0.01191,0 0.09786,0.03418 0.191002,0.07596 0.09315,0.04178 0.272218,0.116981 0.397947,0.167115 0.334479,0.133376 0.838751,0.387735 0.855565,0.431555 0.008,0.02085 0.04834,0.04639 0.08964,0.05675 0.0413,0.01037 0.126157,0.07537 0.188575,0.144462 0.122735,0.135853 0.762983,0.593678 0.830233,0.593678 0.02262,0 0.05285,0.01845 0.06721,0.04104 0.01436,0.02258 0.173068,0.114029 0.352674,0.203228 0.420912,0.209043 0.669451,0.366385 0.669451,0.42381 0,0.06533 0.158512,0.180976 0.248054,0.180976 0.08475,0 0.209156,0.115384 0.20909,0.193931 -1.9e-5,0.02805 -0.06662,0.14651 -0.147991,0.263257 -0.08138,0.116742 -0.173203,0.248759 -0.204064,0.293364 -0.03087,0.04461 -0.08182,0.107063 -0.11325,0.13879 -0.06408,0.06468 -0.07481,0.123 -0.02261,0.123 0.09,0 0.3268,-0.07749 0.360358,-0.117927 0.05817,-0.07009 0.178054,-0.05381 0.262975,0.03572 0.08835,0.09314 0.125889,0.10305 0.125889,0.03322 0,-0.05823 0.0071,-0.05923 0.104595,-0.01473 0.08528,0.03893 0.209213,0.213821 0.240858,0.339905 0.0285,0.113495 -0.11363,0.328238 -0.265003,0.40042 -0.06221,0.02966 -0.113106,0.06413 -0.113106,0.07658 0,0.01245 -0.04776,0.0413 -0.10613,0.06411 -0.101621,0.0397 -0.414945,0.221551 -0.449026,0.260609 -0.009,0.0103 -0.11969,0.08425 -0.246026,0.16435 -0.126336,0.0801 -0.25859,0.164102 -0.293906,0.186666 -0.03529,0.02258 -0.08625,0.05005 -0.113188,0.06108 -0.07841,0.03211 -0.295301,0.128661 -0.495985,0.220804 -0.102161,0.04691 -0.202809,0.08529 -0.223659,0.08529 -0.02083,0 -0.08421,0.02101 -0.14081,0.04668 -0.0566,0.02567 -0.242508,0.09334 -0.413137,0.150379 -0.170628,0.05704 -0.354319,0.12997 -0.408201,0.162069 -0.05388,0.03211 -0.149403,0.06902 -0.212263,0.08205 -0.06286,0.01302 -0.128993,0.03299 -0.146954,0.04434 -0.01795,0.01137 -0.150218,0.05199 -0.293904,0.09029 -0.537922,0.14339 -0.65439,0.177144 -0.702108,0.203473 -0.02694,0.01486 -0.129809,0.04592 -0.228595,0.06901 -0.09878,0.02308 -0.194302,0.05282 -0.212263,0.06608 -0.01795,0.01325 -0.113478,0.04299 -0.212264,0.06608 -0.09879,0.02309 -0.201654,0.05414 -0.228594,0.069 -0.04742,0.02617 -0.125993,0.04862 -0.718435,0.205315 -0.152667,0.04038 -0.299621,0.08202 -0.326561,0.09252 -0.02694,0.0105 -0.144504,0.04138 -0.261251,0.06859 -0.844257,0.196799 -1.029366,0.261344 -1.071431,0.373594 -0.06628,0.176867 -0.202158,0.618959 -0.202158,0.657743 0,0.0552 -0.151228,0.446279 -0.237516,0.61421 -0.0483,0.09401 -0.103073,0.149321 -0.169961,0.171632 -0.06854,0.02285 -0.138324,0.09522 -0.22841,0.236835 -0.07134,0.112152 -0.13777,0.211261 -0.147612,0.220243 -0.0098,0.009 -0.06797,0.116333 -0.129168,0.238556 -0.08674,0.173237 -0.157086,0.258684 -0.319064,0.387578 -0.192339,0.15305 -0.222867,0.166134 -0.410564,0.175961 -0.111527,0.0059 -0.254208,-0.0016 -0.317072,-0.01594 z"
       id="path174" />
  </g>
</svg>
