<?xml version="1.0" encoding="UTF-8" standalone="no"?>
<svg
   xmlns:dc="http://purl.org/dc/elements/1.1/"
   xmlns:cc="http://creativecommons.org/ns#"
   xmlns:rdf="http://www.w3.org/1999/02/22-rdf-syntax-ns#"
   xmlns:svg="http://www.w3.org/2000/svg"
   xmlns="http://www.w3.org/2000/svg"
   xmlns:sodipodi="http://sodipodi.sourceforge.net/DTD/sodipodi-0.dtd"
   xmlns:inkscape="http://www.inkscape.org/namespaces/inkscape"
   sodipodi:docname="groupyr-logo-large.svg"
   inkscape:version="1.0 (4035a4f, 2020-05-01)"
   id="svg8"
   version="1.1"
   viewBox="0 0 66.145755 34.30918"
   height="129.67247"
   width="249.99971">
  <defs
     id="defs2" />
  <sodipodi:namedview
     units="px"
     inkscape:window-maximized="0"
     inkscape:window-y="30"
     inkscape:window-x="15"
     inkscape:window-height="855"
     inkscape:window-width="1252"
     showgrid="false"
     inkscape:document-rotation="0"
     inkscape:current-layer="layer1"
     inkscape:document-units="mm"
     inkscape:cy="79.537152"
     inkscape:cx="160.9119"
     inkscape:zoom="2.4345633"
     inkscape:pageshadow="2"
     inkscape:pageopacity="0.0"
     borderopacity="1.0"
     bordercolor="#666666"
     pagecolor="#ffffff"
     id="base"
     fit-margin-top="2.5"
     fit-margin-right="2.5"
     fit-margin-bottom="2.5"
     fit-margin-left="2.5"
     lock-margins="true" />
  <metadata
     id="metadata5">
    <rdf:RDF>
      <cc:Work
         rdf:about="">
        <dc:format>image/svg+xml</dc:format>
        <dc:type
           rdf:resource="http://purl.org/dc/dcmitype/StillImage" />
        <dc:title></dc:title>
      </cc:Work>
    </rdf:RDF>
  </metadata>
  <g
     id="layer1"
     inkscape:groupmode="layer"
     inkscape:label="Layer 1"
     transform="translate(-50.137509,-76.716616)">
    <path
       id="path174"
       d="m 89.494178,110.18268 c -0.411623,-0.0957 -0.865562,-0.33613 -0.913649,-0.48086 -0.02741,-0.076 -0.170718,-0.30921 -0.319296,-0.52896 -0.76939,-1.05791 -1.105997,-3.60651 -0.480869,-3.84695 0.06733,-0.026 0.122132,-0.099 0.122132,-0.163 0,-0.0639 0.224074,-0.34575 0.48087,-0.62514 0.379886,-0.38902 0.673216,-0.62512 1.298344,-0.91364 0.441918,-0.2135 0.817477,-0.38807 0.865563,-0.38807 0.04376,0 0.125512,-0.0553 0.181755,-0.12311 0.08415,-0.10145 0.06203,-0.13319 -0.126464,-0.18033 -0.303429,-0.076 -1.586867,0.024 -1.683042,0.13319 -0.216878,0.21688 -4.183555,0.0279 -4.996222,-0.23756 -0.273612,-0.0909 -0.625128,-0.19186 -0.769387,-0.22505 -0.162052,-0.0327 -0.40874,-0.10772 -0.528956,-0.16685 -0.138973,-0.0587 -0.76939,-0.26929 -1.346432,-0.46837 -1.250256,-0.41066 -2.356253,-0.52895 -2.644774,-0.31737 -0.234673,0.19859 -0.721303,0.45827 -1.057911,0.57704 -0.181754,0.0582 -0.368827,0.13608 -0.41499,0.17216 -0.04665,0.0361 -0.29429,0.12022 -0.528954,0.18658 -0.48087,0.12984 -0.817477,0.31641 -1.683039,1.00982 -0.577044,0.43326 -0.76939,0.52896 -0.865565,0.3092 -0.0245,-0.0635 -0.07164,-0.43374 -0.104832,-0.81747 -0.03366,-0.38855 -0.100988,-0.72131 -0.1505,-0.76939 -0.120688,-0.0779 -0.57704,0.0139 -0.817475,0.16589 -0.114443,0.0741 -0.287078,0.10434 -0.430858,0.0755 -0.131751,-0.0265 -0.273615,-0.016 -0.314969,0.0232 -0.04182,0.0389 -0.47558,0.20772 -0.961736,0.37508 -0.769389,0.2712 -0.961738,0.3039 -1.731126,0.3039 -0.721302,0 -0.913651,-0.0317 -1.154084,-0.16878 -0.173116,-0.0928 -0.366421,-0.16829 -0.428935,-0.16829 -0.198594,0 -1.634951,-1.106 -1.634951,-1.29835 0,-0.0452 -0.07693,-0.18031 -0.171183,-0.30006 -0.168783,-0.21445 -0.183688,-0.33276 -0.165894,-1.346432 0.0067,-0.391908 0.169738,-0.769389 0.474618,-1.154084 0.338532,-0.398638 0.865562,-0.913649 1.154083,-1.057911 0.185622,-0.116353 0.356324,-0.236581 0.379887,-0.266881 0.07597,-0.09954 0.769387,-0.426048 0.913648,-0.426048 0.126956,0 0.421722,-0.235138 0.360171,-0.28708 -0.01727,-0.01392 -0.201973,-0.08798 -0.410661,-0.164451 -0.577044,-0.215435 -1.971562,-0.413067 -3.125644,-0.452977 -0.961739,-0.0327 -1.105997,-0.01779 -1.442605,0.138973 -0.205326,0.09616 -0.406816,0.175513 -0.448169,0.175513 -0.04087,0 -0.44288,0.208705 -0.913649,0.463558 -0.450575,0.255329 -0.865565,0.464038 -0.913653,0.464038 -0.03943,0 -0.123112,0.0476 -0.186577,0.105322 -0.06346,0.05818 -0.230339,0.166386 -0.37075,0.240913 -1.923472,1.009826 -2.500516,1.346434 -3.02947,1.683042 -0.48087,0.306312 -1.250257,0.673215 -1.394518,0.673215 -0.05674,0.002 -0.176959,0.0587 -0.266883,0.12647 -0.18129,0.13703 -1.202172,0.17551 -1.34643,0.0505 -0.04425,-0.0404 -0.307756,-0.14091 -0.577044,-0.22312 -0.769388,-0.22312 -2.308167,-1.009824 -2.644775,-1.346432 -0.209168,-0.199574 -0.346224,-0.440477 -0.445763,-0.76939 -0.241868,-0.817477 -0.412106,-1.34643 -0.48087,-1.442605 -0.03894,-0.05049 -0.08943,-0.449132 -0.111566,-0.865565 -0.02269,-0.436626 -0.07935,-0.961735 -0.125975,-1.202168 -0.126955,-0.625129 -0.144749,-2.211995 -0.02553,-2.356255 0.05385,-0.06539 0.07646,-0.203416 0.04954,-0.306793 -0.05772,-0.220722 0.173606,-0.528958 0.401524,-0.528958 0.221212,0 0.29285,-0.176958 0.112999,-0.277942 -0.150036,-0.08369 -0.149546,-0.08943 0.009,-0.145213 0.123113,-0.04327 0.16734,-0.140907 0.173607,-0.386619 0.0245,-0.961735 0.156767,-1.971558 0.29958,-2.211995 0.0856,-0.161563 0.155812,-0.361132 0.155812,-0.442878 0,-0.08175 0.02837,-0.149055 0.06301,-0.150035 0.0351,0 0.136084,-0.151944 0.224563,-0.33709 0.08847,-0.185134 0.209658,-0.336607 0.268326,-0.336607 0.05916,0 0.130308,-0.07262 0.158674,-0.162054 0.05627,-0.176468 0.673216,-0.57704 1.154083,-0.817477 0.248133,-0.103387 0.40922,-0.114444 0.769389,-0.05194 0.398641,0.07213 1.250258,0.331319 1.731126,0.528954 0.09232,0.0375 0.339012,0.118288 0.528957,0.179358 0.454901,0.133195 3.173728,1.490691 3.173728,1.586866 0.01548,0.04425 0.115889,0.0808 0.22263,0.0808 0.106767,0 0.397679,0.139927 0.625131,0.311123 0.57704,0.406332 1.634951,1.009823 2.500513,1.394516 0.370751,0.179357 0.721303,0.359691 0.817477,0.401527 0.528956,0.269768 2.88521,0.277942 2.981382,0.01055 0.0196,-0.06012 -0.03605,-0.105323 -0.129843,-0.105323 -0.188975,0 -1.634951,-0.7213 -1.731125,-0.865561 -0.04665,-0.05723 -0.236581,-0.205325 -0.421722,-0.328915 -0.185624,-0.124068 -0.446726,-0.322182 -0.577042,-0.440475 l -0.242356,-0.214945 0.137528,-0.34334 c 0.07551,-0.188512 0.288523,-0.528953 0.473655,-0.76939 0.185624,-0.234673 0.337091,-0.478942 0.337091,-0.528954 0,-0.06444 0.13513,-0.239959 0.300061,-0.390467 0.29333,-0.266398 0.300061,-0.287076 0.281789,-0.865561 -0.01055,-0.316413 0.01599,-0.625128 0.05818,-0.673216 0.04232,-0.04231 0.431819,-0.171671 0.865563,-0.287558 0.433262,-0.116378 0.817475,-0.245735 0.865563,-0.288041 0.05385,-0.04232 0.28756,-0.181755 0.528956,-0.309198 0.231784,-0.127909 0.673216,-0.360652 0.961736,-0.528956 0.285155,-0.156766 0.577041,-0.285155 0.625128,-0.285155 0.06877,0 0.168783,-0.05289 0.222166,-0.117798 0.05385,-0.06444 0.22794,-0.14186 0.386616,-0.171671 0.158674,-0.02981 0.394314,-0.109657 0.528956,-0.176958 0.129353,-0.0678 0.37123,-0.123113 0.528954,-0.123578 0.166385,0 0.528956,-0.08271 0.865564,-0.183198 0.399121,-0.135131 0.721303,-0.182735 1.298344,-0.181782 0.673215,0.0014 0.817477,0.02981 1.154084,0.229386 l 0.412586,0.227942 0.219767,-0.203881 c 0.235136,-0.217834 0.721302,-0.356324 0.817476,-0.226498 0.08463,0.136084 0.480866,-0.07695 0.817475,-0.426048 0.347188,-0.377003 0.673214,-0.440479 0.865563,-0.163988 0.152924,0.244755 0.276499,0.209658 0.577042,-0.161099 0.292368,-0.364017 0.528956,-0.465961 0.76939,-0.333721 0.235136,0.125974 0.528954,0.02597 0.625128,-0.220232 0.05338,-0.116843 0.150035,-0.213036 0.214945,-0.213036 0.0649,0 0.165431,-0.05674 0.223119,-0.126464 0.145213,-0.175025 0.334684,-0.157721 0.577041,0.05049 0.124557,0.116843 0.245735,0.158211 0.358729,0.122133 0.176958,-0.05578 0.673215,-0.769388 0.673215,-0.961737 0,-0.25342 0.30968,-0.15821 0.625128,0.199084 0.414991,0.439034 0.43663,0.432783 1.009824,-0.275536 0.223608,-0.277942 0.446246,-0.528956 0.480869,-0.577044 0.146657,-0.102432 0.412584,0.02501 0.673215,0.313046 0.125512,0.150036 0.345265,0.32122 0.480869,0.380368 0.229851,0.09521 0.273133,0.08992 0.374114,-0.04856 0.06301,-0.08655 0.173581,-0.368346 0.245736,-0.625131 0.150499,-0.528955 0.389023,-0.817474 0.625129,-0.673216 0.193797,0.108212 0.961735,0.865565 0.961735,0.961739 0,0.05529 0.528957,0.241403 0.673216,0.243312 0.02501,0 0.04905,-0.06588 0.05385,-0.147148 0.0049,-0.08126 0.126956,-0.451535 0.270729,-0.817475 0.14426,-0.37123 0.263034,-0.769389 0.263997,-0.865563 9.62e-4,-0.09281 0.03704,-0.225519 0.08126,-0.294773 0.06828,-0.108212 0.0981,-0.102432 0.210148,0.04182 0.146657,0.188486 0.673215,1.105995 0.913649,1.49069 l 0.136083,0.263999 0.203881,-0.220232 c 0.112056,-0.120687 0.312087,-0.232737 0.443843,-0.248133 0.214455,-0.02553 0.26063,-0.08992 0.432301,-0.577041 0.302948,-0.913649 0.480869,-1.009823 0.769389,-0.528956 0.09521,0.161562 0.216389,0.455865 0.269288,0.673215 0.05289,0.19764 0.125512,0.397679 0.161562,0.444322 0.03559,0.04616 0.112999,0.29285 0.172163,0.528957 0.238514,1.05791 0.673215,1.202169 1.298344,0.528954 0.214943,-0.22985 0.390945,-0.45538 0.390945,-0.480867 0,-0.04567 0.151944,-0.258227 0.33757,-0.472694 0.185134,-0.21448 0.337087,-0.425569 0.337087,-0.468848 0,-0.192817 0.177912,-0.05194 0.300063,0.237071 0.107722,0.255819 0.12791,0.577044 0.106277,1.731126 -0.01444,0.76939 -0.0057,1.394518 0.02063,1.394518 0.101943,0 0.315449,-0.226007 0.480866,-0.528953 0.24669,-0.414509 0.39287,-0.455863 0.528957,-0.148592 0.08654,0.208214 0.07791,0.328916 -0.0524,0.721302 -0.194262,0.625128 -0.196686,1.20217 -0.0049,1.346432 0.07646,0.05627 0.433262,0.149081 0.76939,0.20628 0.359689,0.05772 0.673216,0.136573 0.721303,0.176003 0.04809,0.03893 0.351995,0.114443 0.673216,0.167829 0.913648,0.149546 0.961735,0.159656 1.731127,0.327471 0.67322,0.150501 2.35626,0.721303 2.9333,0.96174 0.14619,0.06924 0.29092,0.125975 0.3217,0.125975 0.0303,0 0.25246,0.08798 0.48087,0.196196 0.24091,0.107722 0.7213,0.301987 1.00982,0.431341 0.86556,0.344782 2.16391,1.009823 2.21199,1.105997 0.0206,0.05385 0.12503,0.119733 0.2313,0.146657 0.10676,0.02692 0.32603,0.194753 0.48087,0.373153 0.31689,0.350553 1.97156,1.538779 2.1639,1.538779 0.0587,0 0.13658,0.04761 0.17359,0.106277 0.037,0.05818 0.4472,0.294292 0.91364,0.528957 1.106,0.528953 1.73113,0.961736 1.73113,1.105997 0,0.168783 0.40922,0.467403 0.62513,0.467403 0.21879,0 0.52896,0.298139 0.52896,0.480869 0,0.07262 -0.17216,0.378444 -0.38229,0.673216 -0.21015,0.301504 -0.44721,0.625128 -0.52896,0.769389 -0.0794,0.114934 -0.2111,0.276499 -0.29237,0.358247 -0.1654,0.16685 -0.19331,0.317852 -0.0582,0.317852 0.23227,0 0.86555,-0.200529 0.91365,-0.30487 0.1505,-0.180801 0.45971,-0.138972 0.67322,0.09232 0.22793,0.240423 0.32506,0.266402 0.32506,0.08609 0,-0.150499 0.0183,-0.153387 0.26977,-0.03847 0.22023,0.100987 0.52894,0.528953 0.62512,0.865561 0.0736,0.29333 -0.29333,0.865564 -0.67322,1.057911 -0.1606,0.07646 -0.29236,0.165404 -0.29236,0.19764 0,0.03221 -0.12312,0.106767 -0.2741,0.165405 -0.26254,0.102897 -1.05791,0.577041 -1.15408,0.673216 -0.0235,0.02646 -0.3092,0.217832 -0.62513,0.424606 -0.32603,0.20677 -0.67321,0.423646 -0.76939,0.480867 -0.0914,0.05867 -0.22312,0.129355 -0.29237,0.157721 -0.20243,0.0832 -0.76939,0.33228 -1.29834,0.577044 -0.264,0.121178 -0.52896,0.22023 -0.57704,0.22023 -0.0539,0 -0.21784,0.05434 -0.36402,0.120688 -0.14619,0.06635 -0.62513,0.240913 -1.05791,0.38854 -0.44047,0.147148 -0.91365,0.335646 -1.05791,0.418356 -0.13897,0.0832 -0.38566,0.178403 -0.52896,0.212056 -0.16254,0.03366 -0.33324,0.08509 -0.3794,0.114443 -0.0466,0.02935 -0.38806,0.134176 -0.76939,0.23322 -1.39452,0.37027 -1.68304,0.45731 -1.8273,0.52896 -0.0692,0.0385 -0.33517,0.11829 -0.57704,0.17791 -0.25486,0.0596 -0.48087,0.13658 -0.52896,0.17072 -0.0462,0.0346 -0.29285,0.11108 -0.52895,0.17072 -0.25487,0.0596 -0.52896,0.13992 -0.57704,0.1784 -0.12263,0.0673 -0.32555,0.12551 -1.875392,0.52895 -0.394312,0.10388 -0.76939,0.2116 -0.865565,0.23852 -0.06973,0.0274 -0.373151,0.10723 -0.673216,0.17745 -2.163905,0.52895 -2.644774,0.67321 -2.789035,0.96173 -0.171183,0.45683 -0.528955,1.58687 -0.528955,1.68304 0,0.14282 -0.390946,1.15409 -0.625128,1.58687 -0.125022,0.24285 -0.266402,0.38566 -0.439032,0.44336 -0.17696,0.0587 -0.357285,0.24574 -0.577044,0.62513 -0.18418,0.28948 -0.355842,0.52896 -0.381327,0.57704 -0.02502,0.0232 -0.175515,0.30055 -0.333243,0.62513 -0.224074,0.44721 -0.405851,0.67322 -0.817477,1.00983 -0.480867,0.39527 -0.577041,0.42893 -1.057908,0.45442 -0.288041,0.0149 -0.673217,-0.004 -0.817477,-0.0413 z"
       style="fill:#000000;stroke:#000000;stroke-width:0.318771;stroke-opacity:0.979839" />
  </g>
</svg>
